<svg xmlns="http://www.w3.org/2000/svg" viewBox="0 0 24 24" width="24" height="24" fill="none" stroke="currentColor" stroke-width="1.5" stroke-linecap="round" stroke-linejoin="round">
  <path d="M 14 2 H 6 A 2 2 0 0 0 4 4 V 20 A 2 2 0 0 0 6 22 H 18 A 2 2 0 0 0 20 20 V 8 Z" stroke="#A89F84" />
  <path d="M 14 2 V 8 H 20" stroke="#A89F84" />
  
  <line x1="7" y1="6" x2="11" y2="6" stroke="#A89F84" />
  <line x1="7" y1="10" x2="10" y2="10" stroke="#A89F84" />
  
  <path d="M 7 18 L 10 15 L 13 17 L 17 13" stroke="#CF9E4F" stroke-width="1.8" />
  <circle cx="7" cy="18" r="1.2" fill="#D47A55" stroke="#D47A55" />
  <circle cx="10" cy="15" r="1.2" fill="#D47A55" stroke="#D47A55" />
  <circle cx="13" cy="17" r="1.2" fill="#D47A55" stroke="#D47A55" />
  <circle cx="17" cy="13" r="1.2" fill="#D47A55" stroke="#D47A55" />
</svg>
