<svg xmlns="http://www.w3.org/2000/svg" viewBox="0 0 24 24" width="24" height="24" fill="none" stroke="currentColor" stroke-width="1.5" stroke-linecap="round" stroke-linejoin="round">
  <path d="M 3 8 V 5 A 1 1 0 0 1 4 4 H 7" stroke="#A89F84" />
  <path d="M 17 4 H 20 A 1 1 0 0 1 21 5 V 8" stroke="#A89F84" />
  <path d="M 3 16 V 19 A 1 1 0 0 0 4 20 H 7" stroke="#A89F84" />
  <path d="M 17 20 H 20 A 1 1 0 0 0 21 19 V 16" stroke="#A89F84" />
  
  <circle cx="12" cy="12" r="5" stroke="#CF9E4F" />
  <circle cx="12" cy="12" r="2" stroke="#D47A55" />
  
  <line x1="12" y1="7" x2="15.5" y2="8.5" stroke="#A89F84" stroke-dasharray="1 1" />
  <line x1="17" y1="12" x2="15.5" y2="15.5" stroke="#A89F84" stroke-dasharray="1 1" />
  <line x1="12" y1="17" x2="8.5" y2="15.5" stroke="#A89F84" stroke-dasharray="1 1" />
  <line x1="7" y1="12" x2="8.5" y2="8.5" stroke="#A89F84" stroke-dasharray="1 1" />
</svg>
